<svg width="25" height="24" viewBox="0 0 25 24" fill="none" xmlns="http://www.w3.org/2000/svg">
<g clip-path="url(#clip0_113_1461)">
<path d="M9.75 13.75H5.25C4.69772 13.75 4.25 14.1977 4.25 14.75V19.25C4.25 19.8023 4.69772 20.25 5.25 20.25H9.75C10.3023 20.25 10.75 19.8023 10.75 19.25V14.75C10.75 14.1977 10.3023 13.75 9.75 13.75Z" stroke="#121331" stroke-width="1.5" stroke-linecap="round" stroke-linejoin="round"/>
<path d="M9.75 3.75H5.25C4.69772 3.75 4.25 4.19772 4.25 4.75V9.25C4.25 9.80228 4.69772 10.25 5.25 10.25H9.75C10.3023 10.25 10.75 9.80228 10.75 9.25V4.75C10.75 4.19772 10.3023 3.75 9.75 3.75Z" stroke="#121331" stroke-width="1.5" stroke-linecap="round" stroke-linejoin="round"/>
<path d="M19.75 3.75H15.25C14.6977 3.75 14.25 4.19772 14.25 4.75V9.25C14.25 9.80228 14.6977 10.25 15.25 10.25H19.75C20.3023 10.25 20.75 9.80228 20.75 9.25V4.75C20.75 4.19772 20.3023 3.75 19.75 3.75Z" stroke="#121331" stroke-width="1.5" stroke-linecap="round" stroke-linejoin="round"/>
<path d="M17.5 13.75V20.25" stroke="#121331" stroke-width="1.5" stroke-miterlimit="10" stroke-linecap="round"/>
<path d="M20.75 17H14.25" stroke="#121331" stroke-width="1.5" stroke-miterlimit="10" stroke-linecap="round"/>
</g>
<defs>
<clipPath id="clip0_113_1461">
<rect width="24" height="24" fill="white" transform="translate(0.5)"/>
</clipPath>
</defs>
</svg>
